<?xml version="1.0" encoding="utf-8"?>
<!-- Generator: Adobe Illustrator 28.0.0, SVG Export Plug-In . SVG Version: 6.00 Build 0)  -->
<svg version="1.1" id="Слой_1" xmlns="http://www.w3.org/2000/svg" xmlns:xlink="http://www.w3.org/1999/xlink" x="0px" y="0px"
	 viewBox="0 0 2212.8 1000.74" style="enable-background:new 0 0 2212.8 1000.74;" xml:space="preserve">
<style type="text/css">
	.st0{fill:#F7EFE2;}
	.st1{fill:#2B2B2B;}
	.st2{fill:#14213F;}
	.st3{fill:#14213F;stroke:#14213F;stroke-miterlimit:10;}
	.st4{fill:url(#SVGID_1_);}
	.st5{fill:url(#SVGID_00000087373093917137463530000012370268602571473846_);}
	.st6{fill:url(#SVGID_00000060025880411367821870000018166605236342478771_);}
	.st7{fill:url(#SVGID_00000042722448201153328650000016152671112752788107_);}
	.st8{fill:url(#SVGID_00000115474461672421397190000009558793030963657913_);}
	.st9{fill:url(#SVGID_00000037681537205694767290000000238912550202224789_);}
	.st10{fill:url(#SVGID_00000008854077210908242290000010128128736553874589_);}
	.st11{fill:url(#SVGID_00000157286908686760106670000013151821184719770005_);}
	.st12{fill:url(#SVGID_00000074434420195728747200000000235603641860353170_);}
	.st13{fill:url(#SVGID_00000071546835349102748030000006603481887188579490_);}
	.st14{fill:url(#SVGID_00000026848471117171059430000016859998760290449556_);}
	.st15{fill:url(#SVGID_00000001625918149067448630000007123301739903251858_);}
	.st16{fill:url(#SVGID_00000077313421798989576550000010106673900211926445_);}
	.st17{fill:url(#SVGID_00000090253031009411744520000000595757343126301845_);}
	.st18{fill:url(#SVGID_00000023978857133724438850000002812378024339612300_);}
	.st19{fill:url(#SVGID_00000119079342032896431340000009332203227903637419_);}
	.st20{fill:url(#SVGID_00000021090856165935604410000003439443349146886281_);}
	.st21{fill:url(#SVGID_00000022529078825502252170000004702484839890111919_);}
	.st22{fill:url(#SVGID_00000180325731392002184450000000756243292600847757_);}
	.st23{fill:url(#SVGID_00000119801540959130506230000008743005689632578214_);}
	.st24{fill:url(#SVGID_00000078013693153119279390000005080479644154878868_);}
	.st25{fill:url(#SVGID_00000088130816841470688410000009232670249342498208_);}
	.st26{fill:url(#SVGID_00000119830064800670074270000001861565356407112881_);}
	.st27{fill:url(#SVGID_00000103958034570072325080000016108651365836713660_);}
	.st28{fill:url(#SVGID_00000083783033122946634150000017042726025987949726_);}
	.st29{fill:url(#SVGID_00000016788828102289355810000011038037293993652926_);}
	.st30{fill:url(#SVGID_00000145048718896770160690000008555521653007811974_);}
	.st31{fill:url(#SVGID_00000168804661755720096010000003300566075377472407_);}
	.st32{fill:url(#SVGID_00000051348342334325095120000005813508315556953238_);}
	.st33{fill:url(#SVGID_00000146468362835204909460000008037658129811482555_);}
	.st34{fill:url(#SVGID_00000183946115710596347720000006581803446488634525_);}
	.st35{fill:url(#SVGID_00000158025457324417735230000014959341371789559707_);}
	.st36{fill:url(#SVGID_00000043452409669650081230000008608028674454600623_);}
	.st37{fill:url(#SVGID_00000134243701139162089220000003142386953106656675_);}
	.st38{fill:url(#SVGID_00000085948641287830453410000017510742487387422887_);}
	.st39{fill:url(#SVGID_00000147213012288925017010000011262909471331941036_);}
	.st40{fill:url(#SVGID_00000148651590100863890480000015701990532405265338_);}
	.st41{fill:url(#SVGID_00000104703735596068434060000001162524954275628221_);}
	.st42{fill:url(#SVGID_00000145772293703657466950000012988587466534434187_);}
	.st43{fill:url(#SVGID_00000070108493085183728470000009004945389811572377_);}
	.st44{fill:url(#SVGID_00000020371185000545883570000003643489076641124754_);}
	.st45{fill:url(#SVGID_00000080184343323931951330000001514000063418763678_);}
	.st46{fill:url(#SVGID_00000165234453768559098280000005320268990483039641_);}
	.st47{fill:url(#SVGID_00000128460202663524559760000012394012937252113037_);}
	.st48{fill:url(#SVGID_00000019657639721097103550000015247401165558636932_);}
	.st49{fill:url(#SVGID_00000109005823946286454650000011019770678137092761_);}
</style>
<g>
	<g>
		<path class="st2" d="M1248.86,195.51v-20c0-31.77-22.13-58.48-51.8-65.48c1.05,5.25,1.62,10.69,1.62,16.26v12.65
			c13.73,6.43,23.26,20.41,23.26,36.56v20H1248.86z"/>
		<path class="st2" d="M1248.86,284.25v-20h-26.92v20c0,16.15-9.53,30.13-23.26,36.56c-2.56,1.21-5.25,2.15-8.08,2.8
			c-2.91,0.67-5.92,1.02-9.05,1.02h-124.33v26.92h124.33c3.07,0,6.08-0.22,9.05-0.62c2.75-0.35,5.44-0.89,8.08-1.59
			C1227.51,341.76,1248.86,315.46,1248.86,284.25z"/>
		<path class="st2" d="M1234.59,0H978.2c-37.1,0-67.31,30.18-67.31,67.31v108.74c0,32.2,22.78,59.23,53.07,65.77v42.43
			c0,31.2,21.32,57.51,50.19,65.1v-28.54c-13.73-6.43-23.26-20.41-23.26-36.56v-40.9v-26.92v-40.92c0-16.15,9.53-30.13,23.26-36.56
			c2.56-1.21,5.25-2.15,8.08-2.8c2.91-0.67,5.92-1.02,9.05-1.02h124.33v-8.83c0-6.52-1.59-12.68-4.42-18.09h-102.03v0h-17.88
			c-3.07,0-6.08,0.22-9.05,0.62v0c0,0,0,0-0.01,0c-2.75,0.35-5.44,0.89-8.08,1.59c-28.86,7.59-50.19,33.92-50.19,65.1v38.31
			c-15.27-5.76-26.14-20.52-26.14-37.77V67.31c0-22.27,18.12-40.39,40.39-40.39h256.39c22.27,0,40.39,18.12,40.39,40.39v128.21
			h26.92V67.31C1301.9,30.18,1271.72,0,1234.59,0z"/>
		<path class="st2" d="M1234.59,216.44h-61.17c0,0,0,0,0,0c10.72-12.9,17.18-29.45,17.18-47.49V126.3c0-6.11-0.75-12.06-2.15-17.74
			c-7.97-32.5-37.34-56.67-72.26-56.67h-93.96v48.81c2.99-0.38,6.03-0.57,9.05-0.57h17.88V78.8h67.04c16.53,0,31.1,8.48,39.6,21.32
			c0.73,1.08,1.4,2.21,2.05,3.37c0.57,1.02,1.08,2.05,1.56,3.12l0.4,0.89c0.11,0.22,0.19,0.46,0.3,0.7
			c0.19,0.48,0.38,0.94,0.54,1.43c0.35,0.86,0.67,1.75,0.92,2.67c0.22,0.67,0.43,1.35,0.59,2.05c0.38,1.35,0.67,2.72,0.89,4.12
			c0.11,0.7,0.22,1.4,0.3,2.13c0,0,0.03,0.03,0,0.05c0.11,0.7,0.16,1.4,0.22,2.13c0.03,0.3,0.05,0.57,0.05,0.86
			c0.05,0.89,0.08,1.78,0.08,2.67v42.65c0,26.17-21.3,47.49-47.49,47.49h-67.04V143.2h-17.88c-2.45,0-4.9,0.27-7.22,0.81
			c-0.62,0.13-1.21,0.3-1.83,0.48v71.94h-0.01v26.92h0.01v80.26c0,0-0.01,0-0.01,0v27.33c0,0,0.01,0,0.01,0v57.21h26.92v-164.8
			h67.08c26.18,0.02,47.45,21.31,47.45,47.49v25.71h17.88c2.45,0,4.87-0.27,7.22-0.81c0.62-0.13,1.21-0.3,1.83-0.48v-24.42
			c0-18.04-6.46-34.59-17.18-47.49h61.16c22.27,0,40.39,18.12,40.39,40.39v108.74c0,22.27-18.12,40.39-40.39,40.39H978.2
			c-22.27,0-40.39-18.12-40.39-40.39V264.25h-26.92v128.24c0,37.1,30.21,67.31,67.31,67.31h256.39c37.13,0,67.31-30.21,67.31-67.31
			V283.75C1301.9,246.62,1271.72,216.44,1234.59,216.44z"/>
		<path class="st2" d="M1163.68,359.64v48.52h26.92v-49.08c-2.99,0.38-6.03,0.57-9.05,0.57H1163.68z"/>
	</g>
	<g>
		<g>
			<g>
				<path class="st2" d="M115.53,670.26c-6.67-5.39-13.97-9.29-21.92-11.7c-7.95-2.41-15.46-3.62-22.55-3.62
					c-10.21,0-18.44,2.2-24.68,6.6c-6.24,4.4-9.36,9.79-9.36,16.17c0,5.82,2.09,10.89,6.28,15.21c4.18,4.33,10.18,7.63,17.98,9.9
					l42.13,11.49c12.06,3.69,21.77,9.65,29.15,17.87c7.37,8.23,11.06,18.72,11.06,31.49c0,14.76-6.24,26.92-18.72,36.49
					c-12.48,9.57-29.08,14.36-49.79,14.36c-16.74,0-31.35-3.37-43.83-10.11C18.79,797.67,8.37,788.42,0,776.64l21.7-15.75
					c7.66,9.93,16.06,16.91,25.21,20.96c9.15,4.04,18.41,6.06,27.77,6.06c12.91,0,23.19-2.37,30.85-7.13
					c7.66-4.75,11.49-10.67,11.49-17.77c0-5.67-1.92-10.53-5.75-14.58c-3.83-4.04-9.65-7.13-17.45-9.26l-39.36-11.06
					c-14.33-4.39-25.21-11.06-32.66-20c-7.45-8.94-11.17-19.15-11.17-30.64c0-14.33,5.6-26.1,16.81-35.32
					c11.2-9.22,25.74-13.83,43.62-13.83c11.2,0,22.8,2.16,34.79,6.49c11.99,4.33,22.87,10.74,32.66,19.26L115.53,670.26z"/>
				<path class="st2" d="M478.73,721.32c0,25.82-9.08,47.8-27.23,65.96c-18.16,18.16-40.07,27.23-65.75,27.23
					c-25.82,0-47.8-9.08-65.96-27.23c-18.16-18.16-27.23-40.14-27.23-65.96c0-25.67,9.07-47.59,27.23-65.75
					c18.16-18.16,40.14-27.23,65.96-27.23c25.67,0,47.59,9.08,65.75,27.23C469.65,673.73,478.73,695.65,478.73,721.32z
					 M385.75,654.94c-18.44,0-34.15,6.49-47.13,19.47c-12.98,12.98-19.47,28.62-19.47,46.91c0,18.44,6.49,34.15,19.47,47.13
					c12.98,12.98,28.69,19.47,47.13,19.47c18.3,0,33.94-6.49,46.92-19.47c12.98-12.98,19.47-28.69,19.47-47.13
					c0-18.3-6.49-33.94-19.47-46.91C419.69,661.43,404.05,654.94,385.75,654.94z"/>
				<path class="st2" d="M632.99,742.6V633.66h26.6V742.6c0,12.63,4.4,23.33,13.19,32.13c8.79,8.8,19.5,13.19,32.13,13.19
					c12.48,0,23.12-4.39,31.91-13.19c8.79-8.79,13.19-19.5,13.19-32.13V633.66h26.6V742.6c0,19.86-7.02,36.81-21.06,50.85
					c-14.04,14.04-30.92,21.06-50.64,21.06c-19.86,0-36.81-7.02-50.85-21.06C640.01,779.41,632.99,762.46,632.99,742.6z"/>
				<path class="st2" d="M968.1,660.26h-47.87v-26.6h122.34v26.6h-47.87v148.94h-26.6V660.26z"/>
				<path class="st2" d="M1218.1,734.72v74.47h-26.6V633.66h26.6v74.47h90.43v-74.47h26.6v175.54h-26.6v-74.47H1218.1z"/>
				<path class="st2" d="M1617.05,633.66v26.6h-85.11v47.87h63.83v26.6h-63.83v47.87h85.11v26.6h-111.7V633.66H1617.05z"/>
				<path class="st2" d="M1854.28,765.79c-3.55,0.57-7.23,0.85-11.06,0.85h-40v42.55h-26.6V633.66h66.6
					c18.3,0,33.94,6.49,46.91,19.47c12.98,12.98,19.47,28.62,19.47,46.92c0,18.44-6.46,34.12-19.36,47.02
					c-3.55,3.55-7.31,6.6-11.28,9.15l26.6,52.98h-29.58L1854.28,765.79z M1803.22,740.04h40c10.92,0,20.28-3.9,28.09-11.7
					c7.8-7.8,11.7-17.24,11.7-28.3c0-10.92-3.9-20.28-11.7-28.09c-7.8-7.8-17.17-11.7-28.09-11.7h-40V740.04z"/>
				<path class="st2" d="M2186.2,753.24V633.66h26.6v175.54h-17.45l-94.26-122.77v122.77h-26.6V633.66h19.79L2186.2,753.24z"/>
			</g>
		</g>
		<g>
			<path class="st3" d="M509.76,971.42c-3.62,1.13-7.43,1.69-11.45,1.69h-25.68v24.11h-9.04v-99.46h34.72
				c10.37,0,19.23,3.68,26.58,11.03c7.35,7.35,11.03,16.21,11.03,26.58c0,10.45-3.66,19.33-10.97,26.64
				c-2.25,2.25-4.58,4.14-6.99,5.67l15.07,29.54h-10.13L509.76,971.42z M498.31,906.8h-25.68v57.27h25.68
				c7.88,0,14.61-2.79,20.19-8.38c5.59-5.59,8.38-12.36,8.38-20.31c0-7.88-2.79-14.61-8.38-20.19
				C512.92,909.6,506.19,906.8,498.31,906.8z"/>
			<path class="st3" d="M653.47,897.76v9.04h-51.24v36.17h39.18v9.04h-39.18v36.17h51.24v9.04h-60.28v-99.46H653.47z"/>
			<path class="st3" d="M707.72,897.76h6.75l62.57,81.62v-81.62h9.04v99.46h-6.87l-62.45-81.5v81.5h-9.04V897.76z"/>
			<path class="st3" d="M862.99,906.8H834.3v-9.04h66.31v9.04h-28.57v90.42h-9.04V906.8z"/>
			<path class="st3" d="M1021.16,982.15h-66.55l-6.99,15.07h-10.01l46.41-99.46h7.72l46.54,99.46h-10.13L1021.16,982.15z
				 M1016.94,973.11l-29.05-62.09l-29.05,62.09H1016.94z"/>
			<path class="st3" d="M1087.47,897.76h9.04v90.42h48.22v9.04h-57.26V897.76z"/>
			<path class="st3" d="M1352.33,978.05l6.75,6.03c-0.24,0.24-0.48,0.48-0.72,0.72c-10.29,10.29-22.71,15.43-37.25,15.43
				c-14.63,0-27.09-5.14-37.37-15.43c-10.29-10.29-15.43-22.74-15.43-37.37c0-14.55,5.14-26.96,15.43-37.25
				c10.29-10.29,22.74-15.43,37.37-15.43c14.55,0,26.96,5.14,37.25,15.43c0.4,0.4,0.76,0.76,1.09,1.09l-6.51,6.27
				c-0.32-0.32-0.64-0.64-0.96-0.96c-8.52-8.52-18.81-12.78-30.86-12.78c-12.14,0-22.47,4.26-30.98,12.78
				c-8.52,8.52-12.78,18.81-12.78,30.86c0,12.14,4.26,22.47,12.78,30.98c8.52,8.52,18.85,12.78,30.98,12.78
				c12.05,0,22.34-4.26,30.86-12.78C1352.05,978.33,1352.17,978.21,1352.33,978.05z"/>
			<path class="st3" d="M1485.31,982.15h-66.55l-6.99,15.07h-10.01l46.41-99.46h7.72l46.54,99.46h-10.13L1485.31,982.15z
				 M1481.09,973.11l-29.05-62.09l-29.05,62.09H1481.09z"/>
			<path class="st3" d="M1597.78,971.42c-3.62,1.13-7.43,1.69-11.45,1.69h-25.68v24.11h-9.04v-99.46h34.72
				c10.37,0,19.23,3.68,26.58,11.03c7.35,7.35,11.03,16.21,11.03,26.58c0,10.45-3.66,19.33-10.97,26.64
				c-2.25,2.25-4.58,4.14-6.99,5.67l15.07,29.54h-10.13L1597.78,971.42z M1586.33,906.8h-25.68v57.27h25.68
				c7.88,0,14.61-2.79,20.19-8.38c5.59-5.59,8.38-12.36,8.38-20.31c0-7.88-2.79-14.61-8.38-20.19
				C1600.94,909.6,1594.21,906.8,1586.33,906.8z"/>
			<path class="st3" d="M1737.15,914.64c-2.65-2.97-6.31-5.52-10.97-7.66c-4.66-2.13-9.61-3.19-14.83-3.19
				c-7.15,0-12.86,1.77-17.12,5.3c-4.26,3.54-6.39,7.68-6.39,12.42c0,4.34,1.55,8.1,4.64,11.27c3.09,3.18,6.97,5.53,11.63,7.05
				l24.83,6.87c5.95,1.77,10.81,4.86,14.59,9.28c3.78,4.42,5.67,9.97,5.67,16.64c0,7.47-3.18,13.95-9.52,19.41
				c-6.35,5.46-15.03,8.2-26.04,8.2c-8.92,0-16.74-1.99-23.45-5.97c-6.71-3.98-11.92-9.06-15.61-15.25l7.84-4.94
				c3.37,5.47,7.94,9.69,13.68,12.66c5.75,2.97,11.51,4.46,17.3,4.46c8.84,0,15.49-1.93,19.95-5.79c4.46-3.86,6.69-8.24,6.69-13.14
				c0-4.1-1.31-7.69-3.92-10.79c-2.61-3.09-6.25-5.24-10.91-6.45l-23.27-6.63c-6.75-2.17-12.3-5.58-16.64-10.25
				c-4.34-4.66-6.51-10.25-6.51-16.76c0-7.23,2.97-13.48,8.92-18.75c5.95-5.26,13.82-7.9,23.63-7.9c7.47,0,14.1,1.43,19.89,4.28
				c5.79,2.85,10.49,6.33,14.11,10.43L1737.15,914.64z"/>
		</g>
	</g>
</g>
</svg>
